<svg width="179" height="165" viewBox="0 0 179 165" fill="none" xmlns="http://www.w3.org/2000/svg">
<g clip-path="url(#clip0_103_40)">
<g clip-path="url(#clip1_103_40)" filter="url(#filter0_d_103_40)">
<path d="M64.0209 40.9832L91.4703 21.7625C92.98 20.7054 113.288 23.7106 113.288 23.7106C113.288 23.7106 109.167 43.8223 107.657 44.8794L82.9527 62.178" stroke="#5B5654" stroke-width="3"/>
<path d="M78.8352 65.0611L51.3858 84.2817C49.8761 85.3389 47.6003 84.7177 46.3285 82.9014L34.7664 66.3893C33.4946 64.573 33.6892 62.222 35.1989 61.1649L59.9034 43.8663" stroke="#5B5654" stroke-width="3"/>
<path d="M103.116 99.7365L75.6662 118.957C74.1565 120.014 55.2205 116.048 55.2205 116.048C55.2205 116.048 57.9696 96.8974 59.4793 95.8402L84.1838 78.5416" stroke="#5B5654" stroke-width="3"/>
<path d="M88.3011 75.6584L115.751 56.4378C117.26 55.3807 119.536 56.0018 120.808 57.8182L132.37 74.3302C133.642 76.1466 133.447 78.4976 131.937 79.5547L107.233 96.8533" stroke="#5B5654" stroke-width="3"/>
<path d="M108.606 95.8924L131.73 128.917C133.002 130.733 132.807 133.084 131.297 134.141L127.18 137.024C125.67 138.081 123.394 137.46 122.122 135.644L98.9983 102.62" stroke="#5B5654" stroke-width="3"/>
<path d="M84.3252 61.217L92.4187 72.7755" stroke="#5B5654" stroke-width="3"/>
<path d="M58.5309 44.8273L55.0623 39.8737C53.7905 38.0574 53.9851 35.7064 55.4948 34.6492L59.6122 31.7661C61.1219 30.709 63.3978 31.3302 64.6696 33.1465L68.1382 38.1001" stroke="#5B5654" stroke-width="3"/>
<path d="M82.8114 79.5025L74.7179 67.9441" stroke="#5B5654" stroke-width="3"/>
<path d="M66.8451 62.4259L62.3611 60.3301L61.0043 61.269L63.4407 64.7818L62.3183 65.5585L56.3597 56.9677L59.135 55.0472C59.7846 54.5976 60.4084 54.3301 61.0063 54.2447C61.6124 54.1536 62.1576 54.2202 62.6418 54.4446C63.126 54.6689 63.5362 55.0235 63.8725 55.5083C64.2828 56.0999 64.472 56.7412 64.4401 57.4321C64.4164 58.1173 64.1146 58.7701 63.5347 59.3903L68.1895 61.4955L66.8451 62.4259ZM60.3802 60.3693L62.0331 59.2255C62.6416 58.8044 62.9954 58.3407 63.0944 57.8343C63.1878 57.3197 63.0607 56.8118 62.713 56.3106C62.3597 55.8012 61.934 55.512 61.4359 55.4432C60.9461 55.3687 60.3929 55.5448 59.7761 55.9716L58.1233 57.1154L60.3802 60.3693ZM66.2603 52.8344L70.9451 59.5887L69.8226 60.3654L65.1378 53.6111L66.2603 52.8344ZM66.4874 49.7403L67.0687 50.5785L62.7269 53.583L62.1456 52.7449L66.4874 49.7403ZM70.884 49.4705C71.4678 49.0665 72.066 48.8411 72.6785 48.7942C73.2992 48.7416 73.8504 48.8345 74.3321 49.0727L73.4772 47.8402L74.6119 47.0549L79.3993 53.9571C79.8268 54.5734 80.0742 55.2109 80.1416 55.8696C80.2148 56.5365 80.0987 57.1762 79.7934 57.7888C79.4963 58.3957 79.0229 58.9239 78.3733 59.3734C77.4852 59.988 76.5998 60.2906 75.7171 60.2813C74.8344 60.2719 74.0888 59.9427 73.4803 59.2936L74.5905 58.5254C74.9988 58.8508 75.4816 59.0031 76.0391 58.9822C76.6023 58.9695 77.1552 58.7753 77.6979 58.3997C78.3147 57.973 78.6823 57.4327 78.801 56.7791C78.9278 56.1198 78.749 55.4409 78.2646 54.7424L77.2814 53.325C77.333 53.8731 77.232 54.4293 76.9786 54.9939C76.7251 55.5584 76.3065 56.0427 75.7227 56.4467C75.1224 56.8621 74.473 57.0926 73.7744 57.1383C73.0841 57.1782 72.4139 57.0278 71.7638 56.6872C71.1138 56.3466 70.5523 55.8353 70.0792 55.1533C69.6005 54.463 69.3214 53.7623 69.2419 53.0512C69.1567 52.3318 69.257 51.6605 69.5427 51.0372C69.8366 50.4081 70.2837 49.8859 70.884 49.4705ZM75.811 51.205C75.4577 50.6956 75.0471 50.323 74.5794 50.0873C74.1116 49.8516 73.6326 49.7574 73.1422 49.8049C72.6543 49.8385 72.2007 50.0004 71.7814 50.2906C71.362 50.5808 71.048 50.944 70.8394 51.3802C70.6308 51.8164 70.5548 52.2947 70.6114 52.8149C70.668 53.3351 70.873 53.85 71.2263 54.3594C71.5854 54.8771 72.0016 55.2579 72.4751 55.5018C72.9428 55.7376 73.4206 55.8386 73.9085 55.8051C74.3906 55.7633 74.8414 55.5973 75.2608 55.307C75.6801 55.0168 75.9941 54.6536 76.2027 54.2174C76.4138 53.7673 76.4911 53.2821 76.4345 52.7619C76.3722 52.2334 76.1644 51.7145 75.811 51.205ZM78.4147 49.385C77.936 48.6948 77.6569 47.9941 77.5774 47.283C77.4922 46.5636 77.5925 45.8922 77.8782 45.2689C78.1721 44.6399 78.6192 44.1177 79.2195 43.7023C79.8115 43.2926 80.4138 43.0643 81.0263 43.0174C81.6388 42.9705 82.1859 43.0662 82.6675 43.3045L81.8127 42.0719L82.9474 41.2867L87.6322 48.041L86.4975 48.8263L85.6255 47.5691C85.677 48.1171 85.5719 48.6763 85.3103 49.2465C85.0511 49.8028 84.6296 50.283 84.0458 50.687C83.4455 51.1024 82.8002 51.3301 82.1099 51.37C81.4195 51.4099 80.7494 51.2596 80.0993 50.919C79.4493 50.5783 78.8877 50.067 78.4147 49.385ZM84.1465 45.4368C83.7932 44.9273 83.3826 44.5547 82.9149 44.319C82.4471 44.0833 81.9681 43.9892 81.4777 44.0367C80.9898 44.0702 80.5362 44.2321 80.1168 44.5223C79.6975 44.8126 79.3835 45.1758 79.1749 45.612C78.9663 46.0482 78.8903 46.5264 78.9469 47.0466C79.0035 47.5669 79.2085 48.0817 79.5618 48.5912C79.9209 49.1089 80.3371 49.4897 80.8106 49.7336C81.2783 49.9693 81.7561 50.0704 82.244 50.0368C82.7261 49.995 83.1769 49.829 83.5963 49.5388C84.0156 49.2486 84.3296 48.8854 84.5382 48.4492C84.7493 47.9991 84.8266 47.5139 84.77 46.9936C84.7077 46.4652 84.4999 45.9462 84.1465 45.4368Z" fill="#5B5654"/>
<path d="M77.7358 105.229L73.2518 103.133L71.895 104.072L74.3315 107.585L73.209 108.362L67.2504 99.7707L70.0257 97.8502C70.6753 97.4006 71.2991 97.1332 71.897 97.0477C72.5032 96.9566 73.0483 97.0232 73.5325 97.2476C74.0167 97.4719 74.4269 97.8265 74.7632 98.3113C75.1735 98.9029 75.3628 99.5442 75.3309 100.235C75.3072 100.92 75.0054 101.573 74.4254 102.193L79.0803 104.299L77.7358 105.229ZM71.2709 103.172L72.9238 102.029C73.5323 101.607 73.8861 101.144 73.9852 100.637C74.0785 100.123 73.9514 99.6149 73.6037 99.1136C73.2504 98.6042 72.8247 98.315 72.3267 98.2462C71.8369 98.1717 71.2836 98.3478 70.6669 98.7746L69.014 99.9184L71.2709 103.172ZM84.3587 95.2646C84.5069 95.4782 84.6513 95.7127 84.7919 95.9681L79.3894 99.7067C79.8921 100.344 80.4801 100.709 81.1535 100.803C81.8293 100.882 82.4633 100.717 83.0553 100.307C83.5405 99.9716 83.8665 99.5819 84.0333 99.1381C84.2026 98.6804 84.222 98.217 84.0914 97.748L85.3002 96.9115C85.5695 97.6858 85.5753 98.4662 85.3176 99.2526C85.0541 100.031 84.5195 100.699 83.7136 101.256C83.0722 101.7 82.3968 101.955 81.6875 102.02C80.9865 102.08 80.3096 101.946 79.6571 101.619C78.9988 101.284 78.4275 100.768 77.943 100.069C77.4586 99.3707 77.1738 98.6618 77.0886 97.9425C77.0034 97.2231 77.1148 96.5502 77.4226 95.9237C77.733 95.2833 78.2171 94.7355 78.8749 94.2802C79.5163 93.8364 80.1806 93.5834 80.8677 93.5214C81.5549 93.4593 82.201 93.5837 82.8061 93.8947C83.4137 94.1917 83.9313 94.6483 84.3587 95.2646ZM83.0368 95.8328C82.7405 95.4055 82.3923 95.1053 81.9923 94.9321C81.5866 94.7508 81.1651 94.6958 80.7279 94.7673C80.2932 94.8249 79.8785 94.9903 79.4838 95.2634C78.9164 95.6561 78.5567 96.1726 78.4045 96.813C78.2606 97.4476 78.3821 98.1054 78.7691 98.7861L83.0368 95.8328ZM79.697 90.9386L80.2783 91.7768L75.9366 94.7813L75.3552 93.9432L79.697 90.9386ZM88.5598 96.3705L91.8778 94.0744L92.519 94.9988L87.9182 98.1826L87.277 97.2582L87.147 90.0699L83.8907 92.3233L83.2581 91.4112L87.8095 88.2615L88.4422 89.1736L88.5598 96.3705ZM97.6208 86.0871C97.769 86.3007 97.9134 86.5352 98.054 86.7906L92.6515 90.5292C93.1542 91.1663 93.7422 91.5316 94.4156 91.6251C95.0914 91.7046 95.7254 91.5395 96.3174 91.1298C96.8026 90.7941 97.1286 90.4043 97.2954 89.9606C97.4647 89.5029 97.4841 89.0395 97.3535 88.5705L98.5623 87.734C98.8316 88.5083 98.8374 89.2887 98.5797 90.0751C98.3162 90.8533 97.7816 91.5212 96.9757 92.0789C96.3343 92.5227 95.6589 92.7773 94.9496 92.8425C94.2486 92.902 93.5717 92.7684 92.9192 92.4417C92.2609 92.1068 91.6896 91.5901 91.2051 90.8916C90.7207 90.1932 90.4359 89.4843 90.3507 88.7649C90.2655 88.0456 90.3769 87.3727 90.6847 86.7462C90.9951 86.1058 91.4792 85.5579 92.137 85.1027C92.7784 84.6588 93.4427 84.4059 94.1298 84.3438C94.817 84.2818 95.4631 84.4062 96.0682 84.7172C96.6758 85.0142 97.1934 85.4708 97.6208 86.0871ZM96.2989 86.6553C96.0026 86.228 95.6544 85.9278 95.2544 85.7546C94.8487 85.5732 94.4272 85.5183 93.99 85.5898C93.5553 85.6474 93.1406 85.8128 92.7459 86.0859C92.1785 86.4785 91.8188 86.9951 91.6666 87.6354C91.5227 88.2701 91.6442 88.9278 92.0312 89.6086L96.2989 86.6553ZM105.399 86.0859L100.678 84.9383L102.747 87.9211L101.624 88.6978L95.2981 79.577L96.4206 78.8002L100.139 84.1618L100.665 79.3657L102.231 78.2817L101.383 83.8487L106.928 85.0275L105.399 86.0859ZM106.495 75.1483C107.318 74.5793 108.158 74.369 109.015 74.5174C109.867 74.6576 110.618 75.1961 111.267 76.1328L114.029 80.1139L112.918 80.8821L110.268 77.0612C109.801 76.3874 109.276 75.9905 108.694 75.8705C108.106 75.7423 107.52 75.8802 106.936 76.2842C106.344 76.6939 106 77.206 105.903 77.8204C105.814 78.4292 106.014 79.0869 106.504 79.7936L109.095 83.5282L107.972 84.3049L103.288 77.5506L104.41 76.7738L105.077 77.7352C105.059 77.2365 105.174 76.7617 105.422 76.311C105.677 75.8545 106.035 75.467 106.495 75.1483ZM119.507 70.9413C119.656 71.1549 119.8 71.3894 119.941 71.6448L114.538 75.3834C115.041 76.0205 115.629 76.3858 116.302 76.4793C116.978 76.5588 117.612 76.3937 118.204 75.984C118.689 75.6483 119.015 75.2585 119.182 74.8147C119.351 74.357 119.371 73.8937 119.24 73.4246L120.449 72.5881C120.718 73.3625 120.724 74.1429 120.466 74.9293C120.203 75.7075 119.668 76.3754 118.862 76.9331C118.221 77.3769 117.546 77.6315 116.836 77.6967C116.135 77.7562 115.458 77.6226 114.806 77.2959C114.148 76.9609 113.576 76.4443 113.092 75.7458C112.607 75.0474 112.323 74.3385 112.237 73.6191C112.152 72.8998 112.264 72.2268 112.571 71.6003C112.882 70.9599 113.366 70.4121 114.024 69.9569C114.665 69.513 115.329 69.2601 116.017 69.198C116.704 69.136 117.35 69.2604 117.955 69.5713C118.563 69.8683 119.08 70.325 119.507 70.9413ZM118.186 71.5094C117.889 71.0821 117.541 70.7819 117.141 70.6088C116.735 70.4274 116.314 70.3725 115.877 70.444C115.442 70.5016 115.027 70.6669 114.633 70.9401C114.065 71.3327 113.705 71.8492 113.553 72.4896C113.409 73.1243 113.531 73.782 113.918 74.4628L118.186 71.5094Z" fill="#5B5654"/>
</g>
</g>
<defs>
<filter id="filter0_d_103_40" x="9.16455" y="0.322754" width="169.835" height="175.183" filterUnits="userSpaceOnUse" color-interpolation-filters="sRGB">
<feFlood flood-opacity="0" result="BackgroundImageFix"/>
<feColorMatrix in="SourceAlpha" type="matrix" values="0 0 0 0 0 0 0 0 0 0 0 0 0 0 0 0 0 0 127 0" result="hardAlpha"/>
<feOffset dy="4"/>
<feGaussianBlur stdDeviation="2"/>
<feComposite in2="hardAlpha" operator="out"/>
<feColorMatrix type="matrix" values="0 0 0 0 0 0 0 0 0 0 0 0 0 0 0 0 0 0 0.25 0"/>
<feBlend mode="normal" in2="BackgroundImageFix" result="effect1_dropShadow_103_40"/>
<feBlend mode="normal" in="SourceGraphic" in2="effect1_dropShadow_103_40" result="shape"/>
</filter>
<clipPath id="clip0_103_40">
<rect width="179" height="165" fill="white"/>
</clipPath>
<clipPath id="clip1_103_40">
<rect width="107.231" height="129.009" fill="white" transform="translate(13.1646 61.8289) rotate(-35.0005)"/>
</clipPath>
</defs>
</svg>
