<svg width="214" height="163" viewBox="0 0 214 163" fill="none" xmlns="http://www.w3.org/2000/svg">
<path fill-rule="evenodd" clip-rule="evenodd" d="M62.2711 73.1L57.9284 53.4422C54.9169 48.5624 48.5186 45.3236 42.7369 45.4295C42.7369 45.4295 37.5802 45.4295 31.2981 47.5998C2.99024 56.4642 2.9147 62.3449 2.91824 65.2211C2.92221 67.844 8.11559 72.7591 16.4953 77.038L0.026943 74.6575L0 157.541H70.6994L75.3923 119.608C75.3923 119.608 51.9497 118.091 40.2745 116.607C26.2478 114.824 23.7951 103.47 23.7951 103.47L16.4953 77.038C20.6785 78.8271 26.1096 80.8791 33.2795 83.3058C34.2393 83.6297 35.2242 83.7836 36.1946 83.7836C39.4565 83.7836 42.5298 82.0461 43.7745 79.2177C45.3857 75.5414 43.2988 71.4133 39.1146 69.9996C34.7013 68.5064 29.7619 66.677 25.6714 65.0241C26.1795 64.8184 26.7239 64.6085 27.2741 64.3963C27.4823 64.316 27.6914 64.2354 27.8997 64.1546L39.2392 68.1101C46.084 70.4309 47.9961 75.2932 45.9723 79.9138C44.4613 83.3605 39.9008 87.6527 31.8974 84.8777C31.4158 84.7108 30.9436 84.5476 30.4797 84.3872C28.5633 83.7247 26.7901 83.1117 25.0928 82.4972L28.6144 102.589C29.6174 108.308 33.6156 111.269 40.5435 112.908C43.8897 114.136 80.1599 116.553 80.1599 116.553C78.9386 129.029 76.4515 149.502 76.152 151.896C75.3389 156.872 79.008 161.639 84.6819 162.763C85.5017 162.922 86.3223 163 87.1231 163C92.1884 163 96.7559 159.927 97.914 155.408C98.4012 153.503 102.656 108.935 102.697 108.491C102.952 105.789 101.777 102.843 99.694 100.844C97.0205 98.2766 94.6239 96.0078 66.1411 95.1604L62.2711 73.1Z" fill="#5B5654"/>
<path d="M39.3579 44.5108C50.9079 44.5108 60.271 36.2893 60.271 26.1476C60.271 16.0059 50.9079 7.78442 39.3579 7.78442C27.8079 7.78442 18.4448 16.0059 18.4448 26.1476C18.4448 36.2893 27.8079 44.5108 39.3579 44.5108Z" fill="#5B5654"/>
<path fill-rule="evenodd" clip-rule="evenodd" d="M211.082 65.2211C211.079 67.844 205.884 72.7594 197.505 77.0384C193.321 78.8279 187.89 80.8799 180.721 83.3062C179.761 83.6301 178.775 83.784 177.805 83.784C174.544 83.784 171.47 82.0465 170.226 79.218C168.614 75.5418 170.701 71.4137 174.886 70C179.3 68.5068 184.239 66.6774 188.329 65.0245C187.814 64.8157 187.261 64.603 186.703 64.388C186.503 64.3106 186.301 64.2329 186.1 64.1549L174.761 68.1105C167.916 70.4313 166.003 75.2935 168.028 79.9142C169.539 83.3605 174.099 87.6527 182.103 84.8781C182.63 84.6953 183.145 84.5169 183.652 84.342C185.518 83.6968 187.249 83.098 188.907 82.4976L185.386 102.59C184.382 108.309 180.384 111.269 173.457 112.909C170.111 114.136 133.841 116.553 133.841 116.553C135.061 129.03 137.548 149.502 137.848 151.896C138.661 156.873 134.992 161.64 129.318 162.763C128.498 162.923 127.678 163 126.877 163C121.812 163 117.245 159.928 116.086 155.409C115.599 153.503 111.344 108.935 111.304 108.491C111.048 105.789 112.223 102.843 114.306 100.844C116.98 98.277 119.377 96.0086 147.859 95.1608L151.729 73.1003C150.571 73.2532 149.411 73.3548 148.25 73.3548C137.232 73.3548 126.264 66.9687 117.935 62.1173C117.765 62.0183 117.595 61.9198 117.427 61.822C115.715 60.8276 114.111 59.8962 112.644 59.1166C108.807 57.0805 107.572 52.6964 109.9 49.328C112.214 45.9581 117.208 44.8827 121.042 46.9145C122.803 47.8469 124.74 48.972 126.808 50.173L126.914 50.2344C127.097 50.3409 127.282 50.4491 127.47 50.5586C134.28 54.5277 144.249 60.3371 149.909 58.932C153.225 58.1096 154.266 56.3643 155.228 54.7518C155.499 54.2968 155.764 53.8523 156.073 53.4422C159.084 48.5624 165.482 45.3236 171.264 45.4295C171.264 45.4295 176.419 45.4295 182.702 47.5998C211.011 56.4642 211.086 62.3449 211.082 65.2211Z" fill="#5B5654"/>
<path d="M213.974 74.6575L197.505 77.0384L190.205 103.47C190.205 103.47 187.752 114.824 173.726 116.607C162.05 118.092 138.608 119.608 138.608 119.608L143.301 157.541H214L213.974 74.6575Z" fill="#5B5654"/>
<path d="M174.643 44.5108C186.193 44.5108 195.556 36.2893 195.556 26.1476C195.556 16.0059 186.193 7.78442 174.643 7.78442C163.093 7.78442 153.73 16.0059 153.73 26.1476C153.73 36.2893 163.093 44.5108 174.643 44.5108Z" fill="#5B5654"/>
<path d="M82.614 2C82.614 9.18797 76.8207 15.015 69.6744 15.015C76.8207 15.015 82.614 20.8419 82.614 28.0299C82.614 20.8419 88.4071 15.015 95.5535 15.015C88.4071 15.015 82.614 9.18797 82.614 2Z" stroke="#6B99DA" stroke-width="3" stroke-linecap="round" stroke-linejoin="round"/>
<path d="M99.5349 24.1736C99.5349 30.0304 94.6329 34.7784 88.5861 34.7784C94.6329 34.7784 99.5349 39.5263 99.5349 45.3832C99.5349 39.5263 104.437 34.7784 110.484 34.7784C104.437 34.7784 99.5349 30.0304 99.5349 24.1736Z" stroke="#6B99DA" stroke-width="3" stroke-linecap="round" stroke-linejoin="round"/>
<path d="M71.6651 28.9941C71.6651 32.9875 68.1001 36.2247 63.7023 36.2247C68.1001 36.2247 71.6651 39.4619 71.6651 43.4552C71.6651 39.4619 75.2302 36.2247 79.6279 36.2247C75.2302 36.2247 71.6651 32.9875 71.6651 28.9941Z" stroke="#6B99DA" stroke-width="3" stroke-linecap="round" stroke-linejoin="round"/>
</svg>
