<svg width="415" height="641" viewBox="0 0 415 641" fill="none" xmlns="http://www.w3.org/2000/svg">
<path d="M-3 586.552C48.6261 618.889 52.5287 533.789 111.485 561.144C170.442 588.498 174.202 531.664 127.905 485.201C81.6094 438.739 227.339 462.899 230.304 459.793C233.268 456.688 299.961 466.202 256.758 358.725L230.304 307.472C218.202 268.598 311.104 236.066 297.668 200.573C284.231 165.081 178.438 202.038 164.3 178.12C150.162 154.202 181.736 138.094 189.748 112.223C197.759 86.3526 118.587 116.128 94.5521 120.033C70.5175 123.938 94.5521 20.9442 -2.99999 61.4584" stroke="white" stroke-width="4"/>
<path d="M-3 632.219C68.1141 670.343 73.4899 570.014 154.702 602.263C235.913 634.513 241.092 567.508 177.32 512.73C113.548 457.952 314.288 486.436 318.372 482.775C322.456 479.113 414.324 490.331 354.813 363.618L318.372 303.193C301.703 257.362 429.673 219.008 411.165 177.163C392.656 135.318 246.927 178.889 227.452 150.691C207.977 122.492 251.471 103.501 262.507 73.001C273.543 42.5006 164.484 77.6049 131.376 82.2087C98.2692 86.8126 131.376 -34.6138 -2.99998 13.1511" stroke="white" stroke-width="4"/>
<path d="M-3 549.747C34.2665 576.894 37.0837 505.454 79.6417 528.418C122.2 551.381 124.914 503.67 91.4947 464.665C58.0756 425.661 163.271 445.943 165.411 443.336C167.551 440.729 215.694 448.716 184.508 358.49L165.411 315.465C156.676 282.83 223.737 255.52 214.038 225.725C204.339 195.929 127.971 226.954 117.766 206.875C107.56 186.797 130.353 173.274 136.136 151.556C141.919 129.838 84.7679 154.834 67.4184 158.113C50.0689 161.391 67.4184 74.9291 -2.99999 108.94" stroke="white" stroke-width="4"/>
</svg>
