<svg width="198" height="349" viewBox="0 0 198 349" fill="none" xmlns="http://www.w3.org/2000/svg">
<path d="M1.00427 325.148C21.35 337.883 22.8942 304.379 46.1294 315.153C69.3647 325.927 70.8506 303.55 52.6066 285.254C34.3627 266.957 91.799 276.48 92.9677 275.257C94.1365 274.035 120.422 277.786 103.402 235.467L92.9785 215.286C88.2116 199.98 124.83 187.178 119.537 173.203C114.244 159.228 72.5434 173.771 66.9727 164.353C61.402 154.935 73.8481 148.595 77.0076 138.41C80.1671 128.225 48.9598 139.943 39.4865 141.478C30.0132 143.014 39.4935 102.465 1.04133 118.41" stroke="white" stroke-width="3"/>
<path d="M1.00143 343.128C29.0277 358.143 31.1536 318.642 63.1602 331.345C95.1668 344.048 97.2128 317.667 72.0814 296.096C46.9501 274.524 126.068 285.753 127.678 284.312C129.288 282.871 165.496 287.294 142.049 237.401L127.69 213.608C121.124 195.562 171.565 180.47 164.273 163.994C156.981 147.518 99.54 164.662 91.8661 153.558C84.1923 142.455 101.336 134.981 105.688 122.973C110.04 110.965 67.0527 124.779 54.0035 126.589C40.9543 128.399 54.0117 80.5939 1.04512 99.3903" stroke="white" stroke-width="3"/>
<path d="M1.00838 310.658C15.6947 321.348 16.8101 293.221 33.5824 302.265C50.3546 311.31 51.4277 292.525 38.2586 277.166C25.0895 261.807 66.55 269.799 67.3937 268.773C68.2374 267.747 87.2117 270.895 74.9263 235.37L67.4027 218.428C63.962 205.579 90.3957 194.831 86.5749 183.1C82.7541 171.368 52.6524 183.577 48.6314 175.671C44.6103 167.765 53.5947 162.443 55.8756 153.893C58.1565 145.342 35.6292 155.18 28.7908 156.469C21.9524 157.759 28.7967 123.718 1.03948 137.104" stroke="white" stroke-width="3"/>
<path d="M96.501 153C96.501 153 162 66.9999 181.501 75.4999C201.002 83.9999 202.002 112.5 181.501 119C161 125.5 2 1.49991 2 1.49991" stroke="white" stroke-width="3" stroke-dasharray="6 6"/>
<path d="M129.567 54.1067L125.935 51.049L130.351 51.2534L128.757 44.0389L121.376 43.6979L122.331 48.0149L114.563 41.4755L118.98 41.68L117.386 34.4659L110.006 34.1249L110.96 38.4418L107.327 35.3836C104.118 32.6826 99.2818 33.1511 96.5202 36.4294L86.6156 48.1942C86.1613 48.7329 85.9598 49.4133 86.0092 50.0568C86.0562 50.7006 86.3565 51.3328 86.8839 51.7761L89.4078 53.9009C89.3677 53.9422 89.3229 53.9754 89.2856 54.0198C88.2622 55.2354 88.3967 57.0318 89.5863 58.0332C90.7754 59.0343 92.5688 58.8611 93.5922 57.6454C93.6295 57.6011 93.6546 57.5513 93.6884 57.5048L94.9508 58.5676C94.9108 58.6088 94.8659 58.6421 94.8286 58.6864C93.8052 59.902 93.9398 61.6984 95.1293 62.6999C96.3184 63.7009 98.1119 63.5278 99.1353 62.3121C99.1726 62.2678 99.1977 62.218 99.2316 62.1715L104.551 66.6496C104.511 66.6912 104.466 66.7241 104.428 66.7685C103.405 67.9841 103.54 69.7804 104.729 70.7819C105.918 71.783 107.712 71.6098 108.735 70.3942C108.772 70.3499 108.797 70.2996 108.831 70.2535L110.094 71.3163C110.054 71.3579 110.009 71.3908 109.972 71.4351C108.948 72.6507 109.083 74.4471 110.272 75.4486C111.461 76.4497 113.255 76.2765 114.278 75.0608C114.316 75.0165 114.34 74.9663 114.374 74.9202L116.898 77.0447C117.425 77.4888 118.099 77.677 118.741 77.6136C119.384 77.5527 120.02 77.238 120.473 76.6986L130.378 64.9339C133.138 61.6539 132.775 56.8086 129.567 54.1067ZM123.95 45.8646L127.098 46.0092L127.778 49.0872L124.629 48.9417L123.95 45.8646ZM112.579 36.2911L115.727 36.4361L116.407 39.5137L113.259 39.3686L112.579 36.2911ZM118.52 74.6687L88.9486 49.7728L98.6633 38.2337C99.5371 37.1958 100.728 36.6092 101.967 36.4885C103.207 36.3694 104.468 36.7185 105.484 37.5732L127.723 56.2963C128.739 57.1519 129.297 58.3348 129.391 59.5765C129.483 60.8177 129.108 62.0914 128.235 63.1297L118.52 74.6688L118.52 74.6687Z" fill="white"/>
<path d="M105.81 46.3806L101.953 43.1335L95.3161 51.017L99.1729 54.2641L105.81 46.3806Z" fill="white"/>
<path d="M114.381 53.5969L109.881 49.8083L106.562 53.7502L111.062 57.5389L114.381 53.5969Z" fill="white"/>
<path d="M122.846 60.7231L118.346 56.9344L115.027 60.8764L119.527 64.665L122.846 60.7231Z" fill="white"/>
</svg>
