<svg width="257" height="343" viewBox="0 0 257 343" fill="none" xmlns="http://www.w3.org/2000/svg">
<path d="M247.007 340.402C281.436 276.319 189.8 272.037 218.811 198.916C247.822 125.796 186.614 121.509 136.939 179.088C87.2652 236.667 112.197 56.2054 108.832 52.5572C105.467 48.9089 115.217 -33.6693 -0.160894 20.4748" stroke="white" stroke-width="4"/>
<path d="M197.161 340.7C224.612 292.946 151.602 289.784 174.739 235.299C197.876 180.814 149.11 177.639 109.514 220.552C69.9182 263.465 89.8383 129.01 87.1585 126.293C84.4787 123.576 92.2723 62.0511 0.328162 102.425" stroke="white" stroke-width="4"/>
<path d="M143.602 341.019C163.55 309.988 110.553 307.968 127.373 272.566C144.193 237.164 108.795 235.124 80.0332 263.017C51.2711 290.909 65.7923 203.564 63.8482 201.8C61.9042 200.037 67.5897 160.069 0.828922 186.336" stroke="white" stroke-width="4"/>
</svg>
