<svg width="457" height="317" viewBox="0 0 457 317" fill="none" xmlns="http://www.w3.org/2000/svg">
<path d="M-7 305.06C79.9605 348.217 86.5342 234.643 185.842 271.15C285.15 307.657 291.483 231.806 213.501 169.796C135.518 107.787 380.989 140.031 385.983 135.886C390.977 131.742 503.317 144.44 430.545 1" stroke="#6B99DA" stroke-width="4"/>
<path d="M-7 243.26C57.7868 277.646 62.6843 187.155 136.67 216.243C210.656 245.33 215.374 184.895 157.276 135.489C99.1783 86.0828 282.058 111.773 285.778 108.471C289.499 105.169 373.193 115.286 318.977 1" stroke="#B3A68B" stroke-width="4"/>
<path d="M-7 176.858C35.0825 201.818 38.2637 136.131 86.3215 157.245C134.379 178.36 137.444 134.49 99.7063 98.6261C61.9685 62.7619 180.758 81.4108 183.175 79.0137C185.592 76.6166 239.956 83.9609 204.739 1" stroke="#5B5654" stroke-width="4"/>
</svg>
