<svg width="221" height="514" viewBox="0 0 221 514" fill="none" xmlns="http://www.w3.org/2000/svg">
<path d="M217.079 32.0556C190.246 14.3478 188.475 61.3342 157.86 46.3971C127.246 31.46 125.465 62.8431 149.579 88.3632C173.693 113.883 98.1471 100.949 96.6208 102.671C95.0944 104.394 60.5255 99.3256 83.2169 158.535L97.0687 186.754C103.45 208.179 55.4311 226.394 62.4944 245.949C69.5577 265.504 124.241 244.812 131.633 257.976C139.026 271.139 122.72 280.118 118.647 294.421C114.574 308.724 155.491 292.069 167.927 289.847C180.364 287.625 168.219 344.545 218.623 321.912" stroke="white" stroke-width="4"/>
<path d="M216.945 6.84712C180.002 -14.0016 177.512 41.3959 135.357 23.8179C93.2017 6.23983 90.7164 43.2416 123.906 73.3036C157.095 103.366 53.0458 88.1961 50.9415 90.2284C48.8371 92.2607 1.22451 86.322 32.4188 156.104L51.4695 189.359C60.2375 214.612 -5.9273 236.137 3.78158 259.185C13.4905 282.232 88.8372 257.779 99.0064 273.291C109.176 288.803 86.7054 299.406 81.0796 316.273C75.4537 333.14 131.834 313.461 148.967 310.828C166.1 308.196 149.31 375.315 218.765 348.578" stroke="white" stroke-width="4"/>
<path d="M217.187 52.3721C197.806 37.4899 196.557 76.9329 174.448 64.3744C152.339 51.8158 151.074 78.1602 168.497 99.5989C185.92 121.038 131.378 110.132 130.277 111.577C129.177 113.022 104.22 108.746 120.637 158.465L130.653 182.163C135.273 200.153 100.622 215.414 105.733 231.834C110.844 248.255 150.304 230.918 155.649 241.974C160.993 253.029 149.229 260.557 146.297 272.561C143.366 284.565 172.892 270.61 181.868 268.752C190.844 266.895 182.112 314.67 218.483 295.702" stroke="white" stroke-width="4"/>
<path d="M152.499 311.5C152.499 311.5 122.999 445 73.4991 450.5C23.9993 456 2.49922 366.5 43.4992 361C84.4991 355.5 219.499 512.5 219.499 512.5" stroke="white" stroke-width="3" stroke-dasharray="6 6"/>
<path d="M173.473 413.142L170.022 409.881L174.42 410.339L173.243 403.045L165.894 402.28L166.599 406.645L159.22 399.67L163.617 400.128L162.44 392.834L155.092 392.07L155.796 396.435L152.345 393.173C149.297 390.292 144.441 390.482 141.496 393.597L130.932 404.773C130.448 405.285 130.208 405.953 130.22 406.598C130.23 407.243 130.493 407.892 130.995 408.365L133.392 410.631C133.35 410.67 133.303 410.7 133.263 410.743C132.172 411.897 132.203 413.699 133.333 414.767C134.463 415.834 136.263 415.764 137.355 414.61C137.395 414.567 137.422 414.519 137.459 414.475L138.658 415.608C138.616 415.647 138.569 415.678 138.529 415.72C137.438 416.875 137.469 418.676 138.599 419.744C139.729 420.812 141.529 420.742 142.621 419.587C142.661 419.545 142.689 419.496 142.725 419.452L147.778 424.228C147.736 424.267 147.689 424.298 147.649 424.34C146.558 425.495 146.589 427.296 147.719 428.364C148.849 429.431 150.649 429.362 151.741 428.207C151.781 428.165 151.808 428.116 151.845 428.072L153.044 429.205C153.002 429.245 152.955 429.275 152.915 429.317C151.824 430.472 151.855 432.273 152.985 433.341C154.115 434.409 155.915 434.339 157.007 433.184C157.047 433.142 157.074 433.093 157.111 433.049L159.508 435.315C160.009 435.789 160.671 436.015 161.316 435.989C161.961 435.965 162.614 435.687 163.097 435.175L173.661 423.998C176.605 420.882 176.521 416.024 173.473 413.142ZM168.339 404.591L171.474 404.916L171.975 408.028L168.841 407.702L168.339 404.591ZM157.536 394.381L160.671 394.706L161.172 397.818L158.038 397.492L157.536 394.381ZM161.264 433.036L133.171 406.483L143.532 395.521C144.464 394.535 145.687 394.018 146.931 393.968C148.175 393.921 149.414 394.342 150.379 395.253L171.507 415.222C172.471 416.135 172.961 417.348 172.984 418.593C173.004 419.837 172.557 421.087 171.625 422.074L161.264 433.036L161.264 433.036Z" fill="white"/>
<path d="M150.199 404.065L146.535 400.602L139.456 408.091L143.12 411.554L150.199 404.065Z" fill="white"/>
<path d="M158.342 411.761L154.067 407.721L150.527 411.465L154.803 415.506L158.342 411.761Z" fill="white"/>
<path d="M166.384 419.362L162.108 415.321L158.569 419.066L162.844 423.107L166.384 419.362Z" fill="white"/>
</svg>
