<svg width="316" height="467" viewBox="0 0 316 467" fill="none" xmlns="http://www.w3.org/2000/svg">
<path d="M11.939 4.88612C-29.8151 92.5289 83.8501 97.2766 48.9436 197.159C14.037 297.04 89.9798 302.154 150.728 223.185C211.477 144.216 183.181 390.174 187.406 395.1C191.63 400.027 180.738 512.556 322.991 437.488" stroke="white" stroke-width="4"/>
<path d="M73.7303 3.89303C40.3902 69.224 130.948 72.6667 103.053 147.111C75.1589 221.554 135.661 225.301 184.128 166.416C232.594 107.532 209.845 290.8 213.207 294.467C216.569 298.134 207.797 381.981 321.198 325.935" stroke="white" stroke-width="4"/>
<path d="M140.124 2.82596C115.843 45.3041 181.573 47.4293 161.234 95.8203C140.894 144.211 184.808 146.571 220.061 108.261C255.314 69.9521 238.576 189.026 241.012 191.404C243.447 193.782 236.978 248.257 319.362 211.712" stroke="white" stroke-width="4"/>
</svg>
