<svg width="347" height="345" viewBox="0 0 347 345" fill="none" xmlns="http://www.w3.org/2000/svg">
<path d="M13.8294 343.343C-33.8439 279.75 90.5831 274.178 50.143 201.472C9.70279 128.766 92.7931 123.618 161.086 180.493C229.378 237.368 192.969 57.2726 197.489 53.5773C202.008 49.882 187.601 -32.552 345.103 19.9636" stroke="white" stroke-width="4"/>
<path d="M81.5495 342.939C43.5855 295.576 142.725 291.386 110.526 237.232C78.328 183.077 144.532 179.216 198.926 221.568C253.321 263.919 224.367 129.756 227.97 127.002C231.572 124.248 220.118 62.8373 345.592 101.914" stroke="white" stroke-width="4"/>
<path d="M154.314 342.505C126.778 311.757 198.745 308.991 175.397 273.829C152.049 238.667 200.108 236.128 239.574 263.614C279.039 291.099 258.083 203.966 260.699 202.175C263.315 200.384 255.029 160.5 346.093 185.825" stroke="white" stroke-width="4"/>
</svg>
