<svg width="29" height="27" viewBox="0 0 29 27" fill="none" xmlns="http://www.w3.org/2000/svg">
<path d="M20.86 1.86C20.86 2.136 20.636 2.36 20.36 2.36C20.084 2.36 19.86 2.136 19.86 1.86C19.86 1.584 20.084 1.36 20.36 1.36C20.636 1.36 20.86 1.584 20.86 1.86ZM18.36 1.36C18.084 1.36 17.86 1.584 17.86 1.86C17.86 2.136 18.084 2.36 18.36 2.36C18.636 2.36 18.86 2.136 18.86 1.86C18.86 1.584 18.636 1.36 18.36 1.36ZM16.36 1.36C16.084 1.36 15.86 1.584 15.86 1.86C15.86 2.136 16.084 2.36 16.36 2.36C16.636 2.36 16.86 2.136 16.86 1.86C16.86 1.584 16.636 1.36 16.36 1.36ZM28.36 26.72H20.36C20.161 26.72 20 26.559 20 26.36V22.36C20 22.161 20.161 22 20.36 22H24V18.72H14.72V21.999H18.36C18.559 21.999 18.72 22.16 18.72 22.359V26.359C18.72 26.558 18.559 26.719 18.36 26.719H10.36C10.161 26.719 10 26.558 10 26.359V22.359C10 22.16 10.161 21.999 10.36 21.999H14V18.72H4.72V21.999H8.36C8.559 21.999 8.72 22.16 8.72 22.359V26.359C8.72 26.558 8.559 26.719 8.36 26.719H0.36C0.161 26.719 0 26.558 0 26.359V22.359C0 22.16 0.161 21.999 0.36 21.999H4V18.36C4 18.161 4.161 18 4.36 18H14V13.72H6.36C6.161 13.72 6 13.559 6 13.36V0.36C6 0.161 6.161 0 6.36 0H22.36C22.559 0 22.72 0.161 22.72 0.36V13.36C22.72 13.559 22.559 13.72 22.36 13.72H14.72V18H24.36C24.559 18 24.72 18.161 24.72 18.36V22H28.36C28.559 22 28.72 22.161 28.72 22.36V26.36C28.72 26.559 28.559 26.72 28.36 26.72ZM20.72 26H27.999V22.72H20.72V26ZM10.72 26H18V22.72H10.72V26ZM0.72 26H8V22.72H0.72V26ZM6.72 13H22V3.72H6.72V13ZM6.72 3H22V0.72H6.72V3ZM23.36 24.72H21.36V24H23.36V24.72ZM13.36 24.72H11.36V24H13.36V24.72ZM3.36 24.72H1.36V24H3.36V24.72Z" fill="#6B99DA"/>
</svg>
