<svg width="1437" height="298" viewBox="0 0 1437 298" fill="none" xmlns="http://www.w3.org/2000/svg">
<g clip-path="url(#clip0_126_41)">
<path opacity="0.6" d="M1437 287.78C1437 287.78 1373.97 292.521 1154.01 258.003C1022.99 237.443 873.683 277.918 763.461 275.452C653.24 272.986 601.248 248.997 490.608 251.462C379.968 253.928 298.431 272.064 224.366 275.452C137.991 279.403 3.14116e-05 266.538 3.14116e-05 266.538V137.625V8.71155C3.14116e-05 8.71155 70.115 14.2702 178.964 6.51736C287.813 -1.23545 362.311 -1.31383 410.383 2.34488C501.469 9.27749 629.501 33.9068 655.887 39.1042C659.194 39.7556 662.252 40.2876 665.593 40.7325C702.333 45.6258 940.297 75.0809 1101.18 40.0717C1275.92 2.04607 1437 8.71155 1437 8.71155V287.78Z" fill="#B3A68B" fill-opacity="0.6"/>
<path d="M1352.48 39.108L1296.5 93.8653C1329.63 91.3581 1328.54 100.523 1327.35 116.472C1350.73 111.028 1358.19 114.238 1358.01 134.891L1417.95 78.7945C1413.97 61.0479 1409.08 53.8661 1383.93 58.1977C1381.23 43.2019 1375.42 38.1734 1352.48 39.108Z" stroke="#5B5654" stroke-width="4"/>
<path d="M1296 93.8744V99.5028C1324.07 96.2655 1324.38 103.81 1326.74 116.183C1350.86 117.196 1352.08 123.371 1350.73 136H1357.47" stroke="#5B5654" stroke-width="4"/>
<path d="M1326.74 116.046L1384.24 57.8457" stroke="#5B5654" stroke-width="4"/>
<path d="M110.843 149.11L164.573 205.099C132.773 202.535 133.813 211.906 134.955 228.213C112.516 222.647 105.361 225.929 105.527 247.047L48 189.689C51.8235 171.544 56.5148 164.2 80.6556 168.629C83.2458 153.296 88.8193 148.155 110.843 149.11Z" stroke="#6B99DA" stroke-width="4"/>
<path d="M165.049 205.108V210.863C138.112 207.553 137.806 215.267 135.549 227.918C112.398 228.954 111.221 235.268 112.52 248.181H106.049" stroke="#6B99DA" stroke-width="4"/>
<path d="M135.549 227.778L80.355 168.269" stroke="#6B99DA" stroke-width="4"/>
<path d="M104.854 57.2707L113.221 65.6381M67.875 103.124L68.0154 102.141C68.5121 98.6644 68.7605 96.9258 69.3254 95.3026C69.8268 93.8622 70.5116 92.4925 71.3631 91.2275C72.3226 89.8016 73.5644 88.5597 76.0481 86.0761L110.507 51.6174C112.817 49.3067 116.564 49.3067 118.874 51.6174C121.185 53.928 121.185 57.6742 118.874 59.9848L83.7833 95.0757C81.53 97.329 80.4035 98.4556 79.1202 99.3514C77.9812 100.147 76.7528 100.805 75.4601 101.314C74.0038 101.888 72.4419 102.203 69.3185 102.833L67.875 103.124Z" stroke="#5B5654" stroke-width="4" stroke-linecap="round" stroke-linejoin="round"/>
<path d="M1306.39 219.375H1316.46V209.25M1319.86 212.279L1276.98 174.113C1274.02 171.477 1269.22 171.477 1266.26 174.113C1263.3 176.749 1263.3 181.023 1266.26 183.659L1309.77 222.387C1311.8 224.197 1312.82 225.101 1313.94 225.879C1314.94 226.57 1316.01 227.185 1317.12 227.719C1318.37 228.32 1319.71 228.78 1322.4 229.702L1331.62 232.874L1328.66 224.944C1327.64 222.238 1327.14 220.885 1326.43 219.621C1325.8 218.499 1325.06 217.431 1324.22 216.431C1323.26 215.304 1322.13 214.296 1319.86 212.279Z" stroke="#6B99DA" stroke-width="4" stroke-linecap="round" stroke-linejoin="round"/>
</g>
<defs>
<clipPath id="clip0_126_41">
<rect width="1437" height="298" fill="white"/>
</clipPath>
</defs>
</svg>
