<svg width="214" height="161" viewBox="0 0 214 161" fill="none" xmlns="http://www.w3.org/2000/svg">
<path d="M214 12.6943V148.337C214 148.77 213.97 149.204 213.941 149.637C213.912 150.039 213.852 150.442 213.764 150.814C212.586 156.603 207.52 160.969 201.453 160.969H12.5466C11.8101 160.969 11.0741 160.907 10.3673 160.783C5.03652 159.823 0.854328 155.489 0.117867 150.008C0.0881914 149.792 0.0589336 149.544 0.0589336 149.327C0 148.987 0 148.677 0 148.337V12.6943C0 11.8582 0.0886094 11.0225 0.235734 10.2171C1.38431 4.39651 6.47935 0 12.5466 0H201.453C201.895 0 202.366 0.0311965 202.808 0.0619537C203.25 0.123907 203.662 0.185861 204.104 0.278572C209.052 1.3621 212.91 5.41809 213.794 10.4649C213.852 10.7742 213.911 11.084 213.941 11.3938C213.97 11.8274 214 12.2607 214 12.6943Z" fill="#B3A68B"/>
<path d="M33.4872 0V161H12.0459C11.5159 161 10.9855 160.969 10.4555 160.876C5.06578 160.133 0.824652 155.643 0.117867 150.009C0.0881914 149.792 0.0589336 149.544 0.0589336 149.328C0 148.987 0 148.677 0 148.337V12.6943C0 11.8582 0.0886094 11.0225 0.235734 10.2171C1.32538 4.39651 6.1851 0 12.0459 0H33.4872Z" fill="#B3A68B"/>
<path d="M214 12.6943V148.337C214 148.77 213.97 149.204 213.941 149.637C213.322 155.984 208.198 161 201.954 161H180.513V0H201.954C202.661 0 203.368 0.0619537 204.016 0.185861C209.023 1.11473 212.94 5.26343 213.824 10.4961C213.882 10.8059 213.912 11.0844 213.941 11.3938C213.97 11.8274 214 12.2607 214 12.6943Z" fill="#B3A68B"/>
<path d="M103.207 12.7007V150.316H26.2208C23.7548 150.316 21.4965 149.372 19.7578 147.823C17.5944 145.896 16.2147 143.016 16.2147 139.798V23.2192C16.2147 17.4087 20.6932 12.7007 26.2208 12.7007H103.207Z" fill="white"/>
<path d="M106.31 12.7007V150.316H183.296C185.762 150.316 188.02 149.372 189.758 147.823C191.922 145.896 193.301 143.016 193.301 139.798V23.2192C193.301 17.4087 188.823 12.7007 183.295 12.7007H106.31Z" fill="white"/>
<path d="M169.704 0V40.0642L156.244 32.3859L142.755 40.0642V0H169.704Z" fill="#6B99DA"/>
<path d="M91.4097 33.2415H30.5861V65.0878H91.4097V33.2415Z" fill="#5B5654"/>
<path d="M135.937 45.1528H118.207V63.4089H135.937V45.1528Z" fill="#5B5654"/>
<path d="M158.045 45.1528H140.315V63.4089H158.045V45.1528Z" fill="#5B5654"/>
<path d="M180.153 45.3682H162.423V63.6243H180.153V45.3682Z" fill="#5B5654"/>
<path d="M91.4097 75.1135H30.5861V78.0935H91.4097V75.1135Z" fill="#5B5654"/>
<path d="M91.4097 91.0061H30.5861V93.986H91.4097V91.0061Z" fill="#5B5654"/>
<path d="M91.4097 109.878H30.5861V112.858H91.4097V109.878Z" fill="#5B5654"/>
<path d="M91.4097 124.777H30.5861V127.757H91.4097V124.777Z" fill="#5B5654"/>
<path d="M179.281 75.1135H118.457V78.0935H179.281V75.1135Z" fill="#5B5654"/>
<path d="M179.281 91.0061H118.457V93.986H179.281V91.0061Z" fill="#5B5654"/>
<path d="M179.281 109.878H118.457V112.858H179.281V109.878Z" fill="#5B5654"/>
<path d="M179.281 124.777H118.457V127.757H179.281V124.777Z" fill="#5B5654"/>
</svg>
