<svg width="64" height="57" viewBox="0 0 64 57" fill="none" xmlns="http://www.w3.org/2000/svg">
<path d="M13 31.0307H1V56H25M13 31.0307L32 12.135M13 31.0307H50.5M32 12.135L50.5 31.0307M32 12.135V6.56748M50.5 31.0307H63V56H37.5M32 6.56748V1H50.5V6.56748H32ZM25 56V46.5521H37.5V56M25 56H37.5M32 28.3313L27.5 25.2945L32 20.908L36 25.2945L32 28.3313ZM18.5 51.2761H7V48.5767H18.5V51.2761ZM18.5 46.5521H7V43.5153H18.5V46.5521ZM18.5 40.4785H7V34.7423H18.5V40.4785ZM25 43.5153H37.5V34.7423H25V43.5153ZM42 51.2761H56.5V48.5767H42V51.2761ZM42 46.5521H56.5V43.5153H42V46.5521ZM42 40.4785H56.5V34.7423H42V40.4785Z" stroke="#6B99DA"/>
</svg>
