<svg width="237" height="177" viewBox="0 0 237 177" fill="none" xmlns="http://www.w3.org/2000/svg">
<path d="M234.193 113.382L184.157 174.685L5.8271 168.163L66.9698 112.202M234.193 113.382L66.9698 112.202M234.193 113.382L234.967 3.60916L67.7446 2.42878L66.9698 112.202M49.7093 148.171L36.955 148.081L42.7653 142.859M49.7093 148.171L83.4642 117.832M49.7093 148.171L63.4084 148.268M83.4642 117.832L70.7099 117.742L65.1763 122.716M83.4642 117.832L96.6909 117.925M63.4084 148.268L110.646 148.602M63.4084 148.268L68.4007 143.717M96.6909 117.925L73.3931 139.165M96.6909 117.925L140.15 118.232M73.3931 139.165L119.214 139.489L114.93 144.045M73.3931 139.165L68.4007 143.717M110.646 148.602L127.652 148.722M110.646 148.602L114.93 144.045M121.586 138.152L140.15 118.232M140.15 118.232L152.432 118.319M127.652 148.722L152.432 118.319M127.652 148.722L139.934 148.808M152.432 118.319L164.714 118.406M139.934 148.808L143.651 144.248M139.934 148.808L141.776 148.821M164.714 118.406L218.565 118.786L215.223 123.775M164.714 118.406L152.324 133.607M152.324 133.607L53.8325 132.912M152.324 133.607L143.651 144.248M152.324 133.607L160.354 133.664M184.446 133.834L194.935 120.123M184.446 133.834L206.986 133.993M184.446 133.834L181.175 138.573M184.446 133.834L172.4 133.749M173.945 149.048L184.338 149.122M173.945 149.048L177.56 143.811M173.945 149.048L172.292 149.037M184.338 149.122L194.73 149.195L198.949 143.962M184.338 149.122L204.383 120.189M65.1763 122.716L215.223 123.775M65.1763 122.716L59.2998 127.998M215.223 123.775L210.956 129.068M59.2998 127.998L210.956 129.068M59.2998 127.998L53.8325 132.912M210.956 129.068L206.986 133.993M53.8325 132.912L48.5755 137.637M206.986 133.993L203.168 138.728M48.5755 137.637L147.987 138.927M48.5755 137.637L42.7653 142.859M181.175 138.573L203.168 138.728M181.175 138.573L177.56 143.811M203.168 138.728L198.949 143.962M42.7653 142.859L68.4007 143.717M114.93 144.045L143.651 144.248M177.56 143.811L198.949 143.962M156.527 140.404L148.969 140.35L141.776 148.821M156.527 140.404L160.354 133.664M156.527 140.404L169.754 140.497M160.354 133.664L172.4 133.749M160.354 133.664L152.216 148.895M172.4 133.749L169.754 140.497M172.4 133.749L164.498 148.982M169.754 140.497L177.583 140.552L172.292 149.037M172.292 149.037L164.498 148.982M141.776 148.821L143.619 148.834L152.216 148.895M164.498 148.982L154.058 148.908L152.216 148.895M73.6397 104.228L226.691 105.309L227.356 11.0745L74.3049 9.99416L73.6397 104.228ZM79.8214 165.427L86.9743 155.954L119.096 156.18L112.888 165.661L96.3547 165.544L79.8214 165.427Z" stroke="#6B99DA" stroke-width="4"/>
</svg>
